<svg width="160" height="89" viewBox="0 0 160 89" fill="none" xmlns="http://www.w3.org/2000/svg">
<g filter="url(#filter0_d_816_6)">
<path d="M150.132 49.438C150.372 46.8016 150.029 44.1447 149.126 41.656C148.224 39.1673 146.784 36.908 144.91 35.0385L144.87 34.9985C146.846 33.0109 148.334 30.5922 149.217 27.9324C150.1 25.2725 150.354 22.4442 149.959 19.6696C149.564 16.895 148.531 14.2498 146.941 11.9419C145.351 9.63407 143.247 7.72643 140.796 6.369C138.344 5.01157 135.61 4.24134 132.811 4.11884C130.011 3.99634 127.221 4.5249 124.659 5.663C122.098 6.8011 119.836 8.51772 118.051 10.6779C116.265 12.8381 115.005 15.3829 114.369 18.1124C114.263 18.6192 113.985 19.074 113.584 19.4012C113.182 19.7283 112.681 19.908 112.163 19.9104L55.8308 19.9264C55.3129 19.9241 54.8115 19.7444 54.41 19.4172C54.0085 19.0901 53.7313 18.6352 53.6245 18.1285C52.995 15.3965 51.7402 12.8479 49.9589 10.6831C48.1776 8.51829 45.9183 6.7963 43.3587 5.65257C40.7991 4.50885 38.0091 3.97459 35.208 4.09183C32.407 4.20906 29.6713 4.9746 27.2163 6.32821C24.7612 7.68183 22.6537 9.5866 21.0595 11.8927C19.4653 14.1988 18.428 16.8434 18.029 19.6183C17.63 22.3933 17.8803 25.2229 18.7602 27.8848C19.6401 30.5466 21.1255 32.968 23.0998 34.9585L23.1398 34.9985C21.1624 36.9857 19.673 39.4045 18.7888 42.0648C17.9045 44.7251 17.6495 47.5543 18.0439 50.3298C18.4383 53.1053 19.4712 55.7515 21.0614 58.0602C22.6517 60.3689 24.7559 62.2771 27.2086 63.6349C29.6613 64.9926 32.3955 65.7628 35.1962 65.8848C37.997 66.0068 40.7878 65.4774 43.3493 64.3381C45.9108 63.1989 48.173 61.4808 49.958 59.3192C51.743 57.1576 53.0022 54.6113 53.6365 51.8806C53.7433 51.3738 54.0205 50.919 54.422 50.5918C54.8235 50.2647 55.3249 50.085 55.8428 50.0826L112.179 50.0706C112.697 50.0729 113.198 50.2526 113.6 50.5798C114.001 50.907 114.279 51.3618 114.385 51.8686C115.327 56.0978 117.754 59.8495 121.224 62.4436C124.695 65.0376 128.98 66.3023 133.303 66.0084C137.626 65.7145 141.7 63.8813 144.787 60.8414C147.875 57.8014 149.771 53.7558 150.132 49.438ZM132.977 61.3867C129.754 61.6032 126.558 60.6641 123.964 58.7379C121.37 56.8116 119.547 54.0242 118.822 50.8755C118.486 49.3659 117.645 48.0163 116.438 47.0494C115.23 46.0826 113.73 45.5564 112.183 45.5578L55.8268 45.5578C54.2805 45.5586 52.7807 46.0868 51.5751 47.055C50.3695 48.0233 49.5302 49.3738 49.1957 50.8835C48.699 53.0187 47.6931 55.0021 46.2639 56.6645C44.8347 58.3268 43.0246 59.6187 40.988 60.43C38.9514 61.2414 36.7487 61.548 34.568 61.3237C32.3872 61.0995 30.2931 60.351 28.4642 59.1422C26.6353 57.9334 25.126 56.3001 24.065 54.3817C23.004 52.4633 22.4228 50.3167 22.371 48.1251C22.3192 45.9335 22.7983 43.7618 23.7675 41.7954C24.7367 39.8291 26.1672 38.1263 27.937 36.8325C28.2257 36.6225 28.4607 36.3473 28.6228 36.0293C28.785 35.7113 28.8696 35.3595 28.87 35.0025C28.8698 34.705 28.811 34.4104 28.697 34.1355C28.5829 33.8607 28.4158 33.611 28.2053 33.4008C28.1219 33.3179 28.0322 33.2416 27.937 33.1725C26.1672 31.8787 24.7367 30.176 23.7675 28.2096C22.7983 26.2432 22.3192 24.0716 22.371 21.8799C22.4228 19.6883 23.004 17.5417 24.065 15.6233C25.126 13.7049 26.6353 12.0716 28.4642 10.8628C30.2931 9.654 32.3872 8.90554 34.568 8.6813C36.7487 8.45705 38.9514 8.76366 40.988 9.57497C43.0246 10.3863 44.8347 11.6782 46.2639 13.3405C47.6931 15.0029 48.699 16.9863 49.1957 19.1215C49.5317 20.6297 50.3718 21.9784 51.5772 22.9451C52.7827 23.9118 54.2816 24.4388 55.8268 24.4392L112.183 24.4392C113.729 24.4384 115.229 23.9103 116.435 22.942C117.64 21.9737 118.48 20.6232 118.814 19.1135C119.311 16.9783 120.317 14.9949 121.746 13.3325C123.175 11.6702 124.985 10.3783 127.022 9.56696C129.059 8.75565 131.261 8.44904 133.442 8.67329C135.623 8.89754 137.717 9.64599 139.546 10.8548C141.375 12.0636 142.884 13.6969 143.945 15.6153C145.006 17.5337 145.587 19.6803 145.639 21.8719C145.691 24.0635 145.212 26.2352 144.242 28.2016C143.273 30.168 141.843 31.8707 140.073 33.1645C139.785 33.3748 139.55 33.6501 139.389 33.9681C139.227 34.2861 139.143 34.6378 139.143 34.9945C139.143 35.3512 139.227 35.7029 139.389 36.0209C139.55 36.3389 139.785 36.6142 140.073 36.8245C142.335 38.466 144.036 40.7652 144.945 43.4086C145.853 46.0521 145.924 48.9113 145.148 51.5966C144.372 54.2819 142.788 56.6628 140.61 58.4147C138.432 60.1667 135.767 61.2045 132.977 61.3867Z" fill="#EF4270"/>
<path d="M132.977 61.3867C129.754 61.6032 126.558 60.6641 123.964 58.7379C121.37 56.8116 119.547 54.0242 118.822 50.8755C118.486 49.3659 117.645 48.0163 116.438 47.0494C115.23 46.0826 113.73 45.5564 112.183 45.5578L55.8268 45.5578C54.2805 45.5586 52.7807 46.0868 51.5751 47.055C50.3695 48.0233 49.5302 49.3738 49.1957 50.8835C48.699 53.0187 47.6931 55.0021 46.2639 56.6645C44.8347 58.3268 43.0246 59.6187 40.988 60.43C38.9514 61.2414 36.7487 61.548 34.568 61.3237C32.3872 61.0995 30.2931 60.351 28.4642 59.1422C26.6353 57.9334 25.126 56.3001 24.065 54.3817C23.004 52.4633 22.4228 50.3167 22.371 48.1251C22.3192 45.9335 22.7983 43.7618 23.7675 41.7954C24.7367 39.8291 26.1672 38.1263 27.937 36.8325C28.2257 36.6225 28.4607 36.3473 28.6228 36.0293C28.785 35.7113 28.8696 35.3595 28.87 35.0025C28.8698 34.705 28.811 34.4104 28.697 34.1355C28.5829 33.8607 28.4158 33.611 28.2053 33.4008C28.1219 33.3179 28.0322 33.2416 27.937 33.1725C26.1672 31.8787 24.7367 30.176 23.7675 28.2096C22.7983 26.2432 22.3192 24.0716 22.371 21.8799C22.4228 19.6883 23.004 17.5417 24.065 15.6233C25.126 13.7049 26.6353 12.0716 28.4642 10.8628C30.2931 9.654 32.3872 8.90554 34.568 8.6813C36.7487 8.45705 38.9514 8.76366 40.988 9.57497C43.0246 10.3863 44.8347 11.6782 46.2639 13.3405C47.6931 15.0029 48.699 16.9863 49.1957 19.1215C49.5317 20.6297 50.3718 21.9784 51.5772 22.9451C52.7827 23.9118 54.2816 24.4388 55.8268 24.4392L112.183 24.4392C113.729 24.4384 115.229 23.9103 116.435 22.942C117.64 21.9737 118.48 20.6232 118.814 19.1135C119.311 16.9783 120.317 14.9949 121.746 13.3325C123.175 11.6702 124.985 10.3783 127.022 9.56696C129.059 8.75565 131.261 8.44904 133.442 8.67329C135.623 8.89754 137.717 9.64599 139.546 10.8548C141.375 12.0636 142.884 13.6969 143.945 15.6153C145.006 17.5337 145.587 19.6803 145.639 21.8719C145.691 24.0635 145.212 26.2352 144.242 28.2016C143.273 30.168 141.843 31.8707 140.073 33.1645C139.785 33.3748 139.55 33.6501 139.389 33.9681C139.227 34.2861 139.143 34.6378 139.143 34.9945C139.143 35.3512 139.227 35.7029 139.389 36.0209C139.55 36.3389 139.785 36.6142 140.073 36.8245C142.335 38.466 144.036 40.7652 144.945 43.4086C145.853 46.0521 145.924 48.9113 145.148 51.5966C144.372 54.2819 142.788 56.6628 140.61 58.4147C138.432 60.1667 135.767 61.2045 132.977 61.3867Z" fill="white"/>
<path d="M132.91 60.389L132.912 60.3889C135.496 60.22 137.965 59.2586 139.983 57.6355C142.001 56.0125 143.469 53.8068 144.187 51.3191C144.906 48.8313 144.84 46.1825 143.999 43.7336C143.158 41.2846 141.582 39.1546 139.486 37.6338L139.484 37.6323C139.068 37.3293 138.73 36.9324 138.497 36.474C138.264 36.0156 138.143 35.5087 138.143 34.9945C138.143 34.4803 138.264 33.9734 138.497 33.515C138.73 33.0566 139.068 32.6597 139.484 32.3567M132.91 60.389L28.5265 32.3648C26.8873 31.1662 25.5623 29.5889 24.6645 27.7675C23.7666 25.9458 23.3227 23.9339 23.3707 21.9035C23.4187 19.8731 23.9571 17.8845 24.9401 16.1073C25.923 14.33 27.3213 12.8169 29.0156 11.697C30.7099 10.5772 32.65 9.8838 34.6703 9.67605C36.6906 9.4683 38.7311 9.75236 40.6179 10.504C42.5046 11.2556 44.1816 12.4525 45.5056 13.9925C46.8288 15.5315 47.7603 17.3676 48.2208 19.3443C48.6071 21.0723 49.5702 22.6174 50.9516 23.7252C52.3345 24.8342 54.054 25.4387 55.8265 25.4392H55.8268L112.183 25.4392L112.184 25.4392C113.957 25.4383 115.678 24.8324 117.061 23.7216C118.443 22.612 119.405 21.0648 119.789 19.3351M132.91 60.389C129.924 60.5895 126.963 59.7195 124.56 57.935C122.158 56.151 120.469 53.5698 119.797 50.654C119.411 48.9239 118.446 47.3772 117.063 46.2689C115.678 45.16 113.957 44.5564 112.183 44.5578L132.91 60.389ZM139.484 32.3567L140.073 33.1641L139.483 32.3573C139.483 32.3571 139.483 32.3569 139.484 32.3567ZM139.484 32.3567C141.123 31.1581 142.448 29.5809 143.345 27.7595C144.243 25.9378 144.687 23.9259 144.639 21.8955C144.591 19.8651 144.053 17.8765 143.07 16.0992C142.087 14.322 140.689 12.8089 138.994 11.689C137.3 10.5692 135.36 9.87579 133.34 9.66805C131.319 9.4603 129.279 9.74434 127.392 10.496C125.505 11.2476 123.828 12.4445 122.504 13.9845C121.181 15.5232 120.25 17.3588 119.789 19.3351M119.789 19.3351C119.79 19.3333 119.79 19.3316 119.791 19.3298L118.814 19.1135L119.788 19.3401C119.789 19.3384 119.789 19.3367 119.789 19.3351ZM117.846 51.093L117.848 51.0999C118.626 54.4802 120.583 57.4727 123.368 59.5407C126.153 61.6085 129.583 62.6167 133.043 62.3846C136.038 62.1887 138.898 61.0746 141.236 59.1939C143.575 57.3131 145.276 54.7571 146.109 51.8742C146.942 48.9912 146.865 45.9217 145.89 43.0837C144.916 40.2462 143.09 37.7783 140.662 36.016C140.501 35.8987 140.37 35.7451 140.28 35.5678C140.19 35.3902 140.143 35.1937 140.143 34.9945C140.143 34.7953 140.19 34.5988 140.28 34.4212C140.37 34.2436 140.501 34.0898 140.662 33.9724L140.663 33.9718C142.563 32.5828 144.099 30.7547 145.139 28.6437C146.18 26.5326 146.694 24.2012 146.639 21.8483C146.583 19.4954 145.959 17.1908 144.82 15.1313C143.681 13.0717 142.061 11.3183 140.097 10.0205C138.134 8.72281 135.885 7.91928 133.544 7.67854C131.203 7.43779 128.838 7.76695 126.652 8.63796C124.465 9.50897 122.522 10.896 120.988 12.6806C119.453 14.4653 118.373 16.5946 117.84 18.8869L117.838 18.8972C117.553 20.1848 116.837 21.3365 115.809 22.1623C114.78 22.9881 113.501 23.4385 112.183 23.4392L55.8271 23.4392C55.827 23.4392 55.8269 23.4392 55.8268 23.4392C54.5091 23.4388 53.2308 22.9894 52.2028 22.165C51.1748 21.3405 50.4584 20.1903 50.1718 18.904L50.1697 18.8949C49.6364 16.6026 48.5565 14.4733 47.0222 12.6886C45.4878 10.904 43.5445 9.51698 41.358 8.64598C39.1716 7.77497 36.8069 7.4458 34.4657 7.68654C32.1245 7.92729 29.8762 8.73081 27.9128 10.0286C25.9493 11.3263 24.329 13.0797 23.1899 15.1393C22.0508 17.1989 21.4269 19.5034 21.3713 21.8563C21.3157 24.2092 21.8301 26.5406 22.8706 28.6517C23.9111 30.7628 25.4468 32.5908 27.3468 33.9798L27.3502 33.9823C27.4033 34.0208 27.4534 34.0634 27.5 34.1098C27.617 34.2269 27.7099 34.3659 27.7733 34.5188C27.8369 34.6721 27.8698 34.8363 27.87 35.0022C27.8697 35.2014 27.8224 35.3977 27.7319 35.5751C27.6414 35.7527 27.5101 35.9064 27.3488 36.0237L27.3468 36.0252C25.4468 37.4142 23.9111 39.2423 22.8706 41.3533C21.8301 43.4644 21.3157 45.7958 21.3713 48.1487C21.4269 50.5016 22.0508 52.8062 23.1899 54.8657C24.329 56.9253 25.9493 58.6787 27.9128 59.9765C29.8762 61.2742 32.1245 62.0777 34.4657 62.3185C36.8069 62.5592 39.1716 62.23 41.358 61.359C43.5445 60.488 45.4878 59.101 47.0222 57.3164C48.5565 55.5318 49.6364 53.4024 50.1697 51.1101L50.1698 51.1101L50.172 51.0998C50.4573 49.8123 51.1731 48.6605 52.2013 47.8347C53.2295 47.0089 54.5086 46.5585 55.8273 46.5578L112.183 46.5578L112.184 46.5578C113.503 46.5566 114.783 47.0053 115.812 47.8299C116.842 48.6545 117.559 49.8055 117.846 51.093ZM149.136 49.3471L149.135 49.3547C148.794 53.4342 147.003 57.2566 144.086 60.1288C141.169 63.001 137.319 64.733 133.235 65.0107C129.151 65.2884 125.102 64.0935 121.823 61.6426C118.545 59.1926 116.253 55.6498 115.363 51.6559C115.208 50.928 114.809 50.2748 114.232 49.8046C113.653 49.333 112.93 49.074 112.184 49.0706L112.179 49.0706L55.8426 49.0826L55.8384 49.0827C55.0919 49.086 54.369 49.345 53.7903 49.8166C53.2145 50.2858 52.816 50.9372 52.6603 51.6632C52.0604 54.2399 50.8715 56.6425 49.1869 58.6825C47.5004 60.7248 45.363 62.348 42.9429 63.4244C40.5228 64.5008 37.8859 65.001 35.2398 64.8857C32.5936 64.7704 30.0102 64.0428 27.6929 62.76C25.3756 61.4772 23.3875 59.6742 21.885 57.4929C20.3825 55.3116 19.4065 52.8115 19.034 50.1891C18.6614 47.5668 18.9023 44.8937 19.7377 42.3802C20.5732 39.8668 21.9804 37.5814 23.8487 35.7039L24.5523 34.9968L23.8469 34.2914L23.8098 34.2543C23.8094 34.2538 23.8089 34.2534 23.8085 34.253C21.9438 32.3726 20.5408 30.0853 19.7096 27.5709C18.8783 25.056 18.6418 22.3825 19.0188 19.7606C19.3958 17.1388 20.3759 14.6402 21.8821 12.4613C23.3883 10.2825 25.3795 8.48284 27.6991 7.20393C30.0187 5.92501 32.6034 5.20172 35.2498 5.09095C37.8963 4.98018 40.5324 5.48496 42.9507 6.56557C45.3691 7.64618 47.5037 9.27315 49.1867 11.3185C50.868 13.3618 52.0528 15.7669 52.6482 18.345C52.8037 19.0713 53.2023 19.7231 53.7783 20.1924C54.357 20.664 55.0798 20.923 55.8264 20.9264L55.8311 20.9264L112.163 20.9104L112.168 20.9104C112.914 20.907 113.637 20.648 114.216 20.1764C114.791 19.7073 115.19 19.0561 115.345 18.3302C115.947 15.7548 117.137 13.3536 118.822 11.315C120.508 9.27401 122.646 7.65213 125.066 6.57684C127.485 5.50154 130.121 5.00214 132.767 5.11788C135.412 5.23363 137.995 5.96135 140.311 7.24387C142.628 8.5264 144.615 10.3288 146.118 12.5093C147.62 14.6898 148.596 17.189 148.969 19.8105C149.342 22.432 149.102 25.1042 148.268 27.6173C147.433 30.1303 146.028 32.4156 144.161 34.2935L143.458 35.0006L144.163 35.7056L144.203 35.7457L144.204 35.7466C145.974 37.5123 147.334 39.6463 148.186 41.9969C149.039 44.3476 149.363 46.8571 149.136 49.3471Z" stroke="white" stroke-width="2"/>
</g>
<defs>
<filter id="filter0_d_816_6" x="0.844482" y="0.0759583" width="158.362" height="87.9742" filterUnits="userSpaceOnUse" color-interpolation-filters="sRGB">
<feFlood flood-opacity="0" result="BackgroundImageFix"/>
<feColorMatrix in="SourceAlpha" type="matrix" values="0 0 0 0 0 0 0 0 0 0 0 0 0 0 0 0 0 0 127 0" result="hardAlpha"/>
<feOffset dx="-4" dy="9"/>
<feGaussianBlur stdDeviation="6.5"/>
<feComposite in2="hardAlpha" operator="out"/>
<feColorMatrix type="matrix" values="0 0 0 0 0 0 0 0 0 0 0 0 0 0 0 0 0 0 0.44 0"/>
<feBlend mode="normal" in2="BackgroundImageFix" result="effect1_dropShadow_816_6"/>
<feBlend mode="normal" in="SourceGraphic" in2="effect1_dropShadow_816_6" result="shape"/>
</filter>
</defs>
</svg>
